<svg version="1.0" xmlns="http://www.w3.org/2000/svg" width="1706.667" height="1706.667" viewBox="0 0 1280 1280"><path fill="hsl(0deg 0% 44%)" d="m314.5 315-53 53 135.3 135.3C471.1 577.6 532 639.2 532 640c0 .8-60.9 62.4-135.2 136.7L261.5 912l53.3 53.2 53.2 53.3 135.3-135.3C577.6 808.9 639.2 748 640 748c.8 0 62.4 60.9 136.7 135.2L912 1018.5l53.2-53.3 53.3-53.2-135.3-135.3C808.9 702.4 748 640.8 748 640c0-.8 60.9-62.4 135.2-136.7L1018.5 368l-53.3-53.2-53.2-53.3-135.3 135.3C702.4 471.1 640.8 532 640 532c-.8 0-62.3-60.8-136.5-135-74.2-74.3-135.2-135-135.5-135-.3 0-24.4 23.9-53.5 53z"/></svg>