<?xml version="1.0" standalone="no"?>
<!DOCTYPE svg PUBLIC "-//W3C//DTD SVG 20010904//EN"
 "http://www.w3.org/TR/2001/REC-SVG-20010904/DTD/svg10.dtd">
<svg version="1.0" xmlns="http://www.w3.org/2000/svg"
 width="1280.000000pt" height="1280.000000pt" viewBox="0 0 1280.000000 1280.000000"
 preserveAspectRatio="xMidYMid meet">
<g transform="translate(0.000000,1280.000000) scale(0.100000,-0.100000)"
fill="#000000" stroke="none">
<path fill="hsl(0deg 0% 44%)" d="M3145 9650 l-530 -530 1353 -1353 c743 -743 1352 -1359 1352 -1367 0
-8 -609 -624 -1352 -1367 l-1353 -1353 533 -532 532 -533 1353 1353 c743 743
1359 1352 1367 1352 8 0 624 -609 1367 -1352 l1353 -1353 532 533 533 532
-1353 1353 c-743 743 -1352 1359 -1352 1367 0 8 609 624 1352 1367 l1353 1353
-533 532 -532 533 -1353 -1353 c-743 -743 -1359 -1352 -1367 -1352 -8 0 -623
608 -1365 1350 -742 743 -1352 1350 -1355 1350 -3 0 -244 -239 -535 -530z"/>
</g>
</svg>
